<svg width="32" height="32" viewBox="0 0 32 32" fill="none" xmlns="http://www.w3.org/2000/svg">
<rect width="32" height="32" rx="7" fill="#E7CC34"/>
<path d="M10.4783 14.4416C11.1159 16.2078 13.487 19.413 17.8696 18.1039C18.8543 19.4534 17.6937 21.5083 16.1304 21.5693M13.6957 19.8182C14.4621 21.1294 15.3469 21.5998 16.1304 21.5693M16.1304 21.5693V23.4026M16.1304 28V25.7013M16.1304 23.4026H18.3913M16.1304 23.4026V25.7013M16.1304 25.7013H18.3913M14.913 16.5455L17.0435 15.2597M19.1739 13.974L17.0435 15.2597M17.0435 15.2597C14.913 15.1169 10.8261 13.6779 10.4783 8.75325M9 10L16.1304 4L19.8696 7.13858M23 9.76623L21.4348 8.45241M21.4348 8.45241V13.974M21.4348 8.45241L19.8696 7.13858M19.8696 7.13858V4.93506M17.1739 9.92208V10M17.1739 11.8701V11.9481M15 11.8701V11.9481M15 9.84416V9.92208" stroke="#FBFBFB" stroke-linecap="round" stroke-linejoin="round"/>
</svg>
