<svg width="179" height="67" viewBox="0 0 179 67" fill="none" xmlns="http://www.w3.org/2000/svg">
<path d="M5.48447 29.4091C6.98758 34.0455 12.5764 42.4591 22.9068 39.0227C25.2279 42.5653 22.4923 47.9593 18.8075 48.1193M13.0683 43.5227C14.875 46.9647 16.9605 48.1995 18.8075 48.1193M18.8075 48.1193V52.9318M18.8075 65V58.9659M18.8075 52.9318H24.1366M18.8075 52.9318V58.9659M18.8075 58.9659H24.1366M15.9379 34.9318L20.9596 31.5568M25.9814 28.1818L20.9596 31.5568M20.9596 31.5568C15.9379 31.1818 6.30435 27.4045 5.48447 14.4773M2 17.75L18.8075 2L27.6211 10.2388M35 17.1364L31.3106 13.6876M31.3106 13.6876V28.1818M31.3106 13.6876L27.6211 10.2388M27.6211 10.2388V4.45455M21.2671 17.5455V17.75M21.2671 22.6591V22.8636M16.1429 22.6591V22.8636M16.1429 17.3409V17.5455" stroke="#FBFBFB" stroke-width="2.3" stroke-linecap="round" stroke-linejoin="round"/>
<path d="M63.875 40.0469C63.875 39.6406 63.8125 39.276 63.6875 38.9531C63.5729 38.6198 63.3542 38.3177 63.0312 38.0469C62.7083 37.7656 62.2552 37.4896 61.6719 37.2188C61.0885 36.9479 60.3333 36.6667 59.4062 36.375C58.375 36.0417 57.3958 35.6667 56.4688 35.25C55.5521 34.8333 54.7396 34.349 54.0312 33.7969C53.3333 33.2344 52.7812 32.5833 52.375 31.8438C51.9792 31.1042 51.7812 30.2448 51.7812 29.2656C51.7812 28.3177 51.9896 27.4583 52.4062 26.6875C52.8229 25.9062 53.4062 25.2396 54.1562 24.6875C54.9062 24.125 55.7917 23.6927 56.8125 23.3906C57.8438 23.0885 58.974 22.9375 60.2031 22.9375C61.8802 22.9375 63.3438 23.2396 64.5938 23.8438C65.8438 24.4479 66.8125 25.276 67.5 26.3281C68.1979 27.3802 68.5469 28.5833 68.5469 29.9375H63.8906C63.8906 29.2708 63.75 28.6875 63.4688 28.1875C63.1979 27.6771 62.7812 27.276 62.2188 26.9844C61.6667 26.6927 60.9688 26.5469 60.125 26.5469C59.3125 26.5469 58.6354 26.6719 58.0938 26.9219C57.5521 27.1615 57.1458 27.4896 56.875 27.9062C56.6042 28.3125 56.4688 28.7708 56.4688 29.2812C56.4688 29.6667 56.5625 30.0156 56.75 30.3281C56.9479 30.6406 57.2396 30.9323 57.625 31.2031C58.0104 31.474 58.4844 31.7292 59.0469 31.9688C59.6094 32.2083 60.2604 32.4427 61 32.6719C62.2396 33.0469 63.3281 33.4688 64.2656 33.9375C65.2135 34.4062 66.0052 34.9323 66.6406 35.5156C67.276 36.099 67.7552 36.7604 68.0781 37.5C68.401 38.2396 68.5625 39.0781 68.5625 40.0156C68.5625 41.0052 68.3698 41.8906 67.9844 42.6719C67.599 43.4531 67.0417 44.1146 66.3125 44.6562C65.5833 45.1979 64.7135 45.6094 63.7031 45.8906C62.6927 46.1719 61.5625 46.3125 60.3125 46.3125C59.1875 46.3125 58.0781 46.1667 56.9844 45.875C55.8906 45.5729 54.8958 45.1198 54 44.5156C53.1146 43.9115 52.4062 43.1406 51.875 42.2031C51.3438 41.2656 51.0781 40.1562 51.0781 38.875H55.7812C55.7812 39.5833 55.8906 40.1823 56.1094 40.6719C56.3281 41.1615 56.6354 41.5573 57.0312 41.8594C57.4375 42.1615 57.9167 42.3802 58.4688 42.5156C59.0312 42.651 59.6458 42.7188 60.3125 42.7188C61.125 42.7188 61.7917 42.6042 62.3125 42.375C62.8438 42.1458 63.2344 41.8281 63.4844 41.4219C63.7448 41.0156 63.875 40.5573 63.875 40.0469ZM76.2188 29.0938V46H71.7031V29.0938H76.2188ZM71.4219 24.6875C71.4219 24.0312 71.651 23.4896 72.1094 23.0625C72.5677 22.6354 73.1823 22.4219 73.9531 22.4219C74.7135 22.4219 75.3229 22.6354 75.7812 23.0625C76.25 23.4896 76.4844 24.0312 76.4844 24.6875C76.4844 25.3438 76.25 25.8854 75.7812 26.3125C75.3229 26.7396 74.7135 26.9531 73.9531 26.9531C73.1823 26.9531 72.5677 26.7396 72.1094 26.3125C71.651 25.8854 71.4219 25.3438 71.4219 24.6875ZM90.6406 29.0938H94.7188V45.4375C94.7188 46.9792 94.375 48.2865 93.6875 49.3594C93.0104 50.4427 92.0625 51.2604 90.8438 51.8125C89.625 52.375 88.2083 52.6562 86.5938 52.6562C85.8854 52.6562 85.1354 52.5625 84.3438 52.375C83.5625 52.1875 82.8125 51.8958 82.0938 51.5C81.3854 51.1042 80.7917 50.6042 80.3125 50L82.2969 47.3438C82.8177 47.9479 83.4219 48.4167 84.1094 48.75C84.7969 49.0938 85.5573 49.2656 86.3906 49.2656C87.2031 49.2656 87.8906 49.1146 88.4531 48.8125C89.0156 48.5208 89.4479 48.0885 89.75 47.5156C90.0521 46.9531 90.2031 46.2708 90.2031 45.4688V33L90.6406 29.0938ZM79.2656 37.75V37.4219C79.2656 36.1302 79.4219 34.9583 79.7344 33.9062C80.0573 32.8438 80.5104 31.9323 81.0938 31.1719C81.6875 30.4115 82.4062 29.8229 83.25 29.4062C84.0938 28.9896 85.0469 28.7812 86.1094 28.7812C87.2344 28.7812 88.1771 28.9896 88.9375 29.4062C89.6979 29.8229 90.3229 30.4167 90.8125 31.1875C91.3021 31.9479 91.6823 32.849 91.9531 33.8906C92.2344 34.9219 92.4531 36.0521 92.6094 37.2812V38C92.4531 39.1771 92.2188 40.2708 91.9062 41.2812C91.5938 42.2917 91.1823 43.1771 90.6719 43.9375C90.1615 44.6875 89.526 45.2708 88.7656 45.6875C88.0156 46.1042 87.1198 46.3125 86.0781 46.3125C85.0365 46.3125 84.0938 46.099 83.25 45.6719C82.4167 45.2448 81.7031 44.6458 81.1094 43.875C80.5156 43.1042 80.0573 42.1979 79.7344 41.1562C79.4219 40.1146 79.2656 38.9792 79.2656 37.75ZM83.7656 37.4219V37.75C83.7656 38.4479 83.8333 39.099 83.9688 39.7031C84.1042 40.3073 84.3125 40.8438 84.5938 41.3125C84.8854 41.7708 85.2448 42.1302 85.6719 42.3906C86.1094 42.6406 86.625 42.7656 87.2188 42.7656C88.0417 42.7656 88.7135 42.5938 89.2344 42.25C89.7552 41.8958 90.1458 41.4115 90.4062 40.7969C90.6667 40.1823 90.8177 39.474 90.8594 38.6719V36.625C90.8385 35.9688 90.75 35.3802 90.5938 34.8594C90.4375 34.3281 90.2188 33.875 89.9375 33.5C89.6562 33.125 89.2917 32.8333 88.8438 32.625C88.3958 32.4167 87.8646 32.3125 87.25 32.3125C86.6562 32.3125 86.1406 32.4479 85.7031 32.7188C85.276 32.9792 84.9167 33.3385 84.625 33.7969C84.3438 34.2552 84.1302 34.7969 83.9844 35.4219C83.8385 36.0365 83.7656 36.7031 83.7656 37.4219ZM102.609 22V46H98.1094V22H102.609ZM101.969 36.9531H100.734C100.745 35.776 100.901 34.6927 101.203 33.7031C101.505 32.7031 101.938 31.8385 102.5 31.1094C103.062 30.3698 103.734 29.7969 104.516 29.3906C105.307 28.9844 106.182 28.7812 107.141 28.7812C107.974 28.7812 108.729 28.901 109.406 29.1406C110.094 29.3698 110.682 29.7448 111.172 30.2656C111.672 30.776 112.057 31.4479 112.328 32.2812C112.599 33.1146 112.734 34.125 112.734 35.3125V46H108.203V35.2812C108.203 34.5312 108.094 33.9427 107.875 33.5156C107.667 33.0781 107.359 32.7708 106.953 32.5938C106.557 32.4062 106.068 32.3125 105.484 32.3125C104.839 32.3125 104.286 32.4323 103.828 32.6719C103.38 32.9115 103.021 33.2448 102.75 33.6719C102.479 34.0885 102.281 34.5781 102.156 35.1406C102.031 35.7031 101.969 36.3073 101.969 36.9531ZM124.438 29.0938V32.2812H114.594V29.0938H124.438ZM117.031 24.9219H121.531V40.9062C121.531 41.3958 121.594 41.7708 121.719 42.0312C121.854 42.2917 122.052 42.474 122.312 42.5781C122.573 42.6719 122.901 42.7188 123.297 42.7188C123.578 42.7188 123.828 42.7083 124.047 42.6875C124.276 42.6562 124.469 42.625 124.625 42.5938L124.641 45.9062C124.255 46.0312 123.839 46.1302 123.391 46.2031C122.943 46.276 122.448 46.3125 121.906 46.3125C120.917 46.3125 120.052 46.151 119.312 45.8281C118.583 45.4948 118.021 44.9635 117.625 44.2344C117.229 43.5052 117.031 42.5469 117.031 41.3594V24.9219ZM140.234 23.25V46H135.562V23.25H140.234ZM148.75 32.7031V46H144.25V29.0938H148.469L148.75 32.7031ZM148.094 36.9531H146.875C146.875 35.7031 147.036 34.5781 147.359 33.5781C147.682 32.5677 148.135 31.7083 148.719 31C149.302 30.2812 149.995 29.7344 150.797 29.3594C151.609 28.974 152.516 28.7812 153.516 28.7812C154.307 28.7812 155.031 28.8958 155.688 29.125C156.344 29.3542 156.906 29.7188 157.375 30.2188C157.854 30.7188 158.219 31.3802 158.469 32.2031C158.729 33.026 158.859 34.0312 158.859 35.2188V46H154.328V35.2031C154.328 34.4531 154.224 33.8698 154.016 33.4531C153.807 33.0365 153.5 32.7448 153.094 32.5781C152.698 32.401 152.208 32.3125 151.625 32.3125C151.021 32.3125 150.495 32.4323 150.047 32.6719C149.609 32.9115 149.245 33.2448 148.953 33.6719C148.672 34.0885 148.458 34.5781 148.312 35.1406C148.167 35.7031 148.094 36.3073 148.094 36.9531ZM166.688 32.7031V46H162.188V29.0938H166.406L166.688 32.7031ZM166.031 36.9531H164.812C164.812 35.7031 164.974 34.5781 165.297 33.5781C165.62 32.5677 166.073 31.7083 166.656 31C167.24 30.2812 167.932 29.7344 168.734 29.3594C169.547 28.974 170.453 28.7812 171.453 28.7812C172.245 28.7812 172.969 28.8958 173.625 29.125C174.281 29.3542 174.844 29.7188 175.312 30.2188C175.792 30.7188 176.156 31.3802 176.406 32.2031C176.667 33.026 176.797 34.0312 176.797 35.2188V46H172.266V35.2031C172.266 34.4531 172.161 33.8698 171.953 33.4531C171.745 33.0365 171.438 32.7448 171.031 32.5781C170.635 32.401 170.146 32.3125 169.562 32.3125C168.958 32.3125 168.432 32.4323 167.984 32.6719C167.547 32.9115 167.182 33.2448 166.891 33.6719C166.609 34.0885 166.396 34.5781 166.25 35.1406C166.104 35.7031 166.031 36.3073 166.031 36.9531Z" fill="#FBFBFB"/>
</svg>
